PathFileType	3	(X/Y/Z)	D:\minhoCalibration\240510\subject3_KPNP\preferred\preferred16.trc
DataRate	CameraRate	NumFrames	NumMarkers	Units	OrigDataRate	OrigDataStartFrame	OrigNumFrames
200.0	200.0	30	10	mm	200.0	210	136	
Frame#	Time	Left_Ankle_Outer1			Left_Ankle_Inner1			Left_Knee_Outer1			Left_Knee_Inner1			Left_Wrist1			Right_Wrist1			Right_Knee_Inner1			Right_Knee_Outer1			Right_Ankle_Inner1			Right_Ankle_Outer1			
		X1	Y1	Z1	X2	Y2	Z2	X3	Y3	Z3	X4	Y4	Z4	X5	Y5	Z5	X6	Y6	Z6	X7	Y7	Z7	X8	Y8	Z8	X9	Y9	Z9	X10	Y10	Z10	
210	1.04	-346.50406	76.708374	-540.96973	-404.61145	82.444901	-543.22968	-300.48676	502.81918	-414.52023	-409.58606	502.0618	-407.19696	-292.92688	843.0036	-584.0802	-601.33484	868.13226	-766.19128	-589.52582	418.01086	-827.70746	-649.31097	489.35349	-896.41699	-479.61584	91.425064	-1058.6927	-533.1662	135.32518	-1132.4449
211	1.045	-346.44763	75.722794	-540.883	-404.30087	81.805779	-543.25659	-298.80759	500.77243	-412.36301	-407.80722	500.26517	-404.57651	-289.98834	844.30872	-580.60162	-602.02332	868.1853	-756.77618	-593.30908	418.04971	-820.61823	-654.34741	490.40268	-887.23047	-481.23685	96.477776	-1056.413	-535.43787	140.70694	-1129.5879
212	1.05	-345.69424	75.295929	-540.99872	-404.04706	81.341301	-543.3443	-297.14062	498.88879	-410.21573	-406.09308	498.36212	-402.14349	-286.73553	846.03265	-577.21771	-602.63885	868.59357	-746.92548	-597.51154	418.27185	-811.9303	-659.84686	491.83664	-877.36591	-482.85864	102.16473	-1053.8623	-537.72974	146.73053	-1126.0166
213	1.055	-346.35471	74.414261	-540.73663	-403.92203	81.075272	-543.33276	-295.26804	497.12384	-408.25525	-404.28174	496.44559	-400.07544	-283.55069	847.88171	-573.84418	-602.85107	869.29291	-736.82446	-601.6424	418.62045	-802.86444	-665.50128	493.5647	-867.03162	-484.93677	108.18649	-1050.6224	-540.34473	152.9659	-1121.7407
214	1.06	-345.44669	74.680077	-540.59106	-403.77716	81.026688	-543.15521	-293.64688	495.48972	-406.05441	-402.35751	494.62686	-398.07413	-279.88669	849.88922	-570.55859	-603.04633	870.38165	-726.45795	-606.66718	420.10022	-792.08167	-671.5163	495.78262	-855.93457	-487.38364	114.7537	-1046.8617	-543.72876	160.30817	-1117.333
215	1.065	-345.28827	74.306068	-540.53107	-403.53723	81.023163	-542.91949	-291.94547	494.20743	-404.01108	-400.4335	493.06232	-396.11523	-276.36142	851.86157	-567.20471	-602.95325	871.758	-715.80414	-611.53552	421.59119	-781.20837	-677.71924	498.19867	-844.11633	-490.29361	121.96957	-1042.5656	-547.12976	167.7261	-1111.7472
216	1.07	-344.28766	74.836136	-540.35748	-403.1955	81.32386	-542.71063	-290.34564	493.14392	-401.93549	-398.41873	492.13098	-394.0455	-272.38428	854.09094	-563.92145	-602.64301	873.52856	-705.08929	-616.83459	423.30841	-769.50568	-684.04254	500.91339	-831.40277	-493.5004	129.66037	-1037.8551	-551.77161	176.01691	-1106.6172
217	1.075	-344.07806	74.898239	-539.70514	-402.7059	81.691933	-542.46399	-288.7413	492.45752	-399.9003	-396.3475	491.21295	-392.28391	-268.13776	856.39398	-560.90155	-602.13	875.54358	-693.96368	-622.29248	425.35355	-757.40808	-690.28949	503.74591	-817.89795	-497.48904	137.98988	-1032.422	-556.40839	184.54205	-1100.0073
218	1.08	-345.30701	73.926407	-538.98804	-401.80511	82.207474	-542.29474	-287.16086	492.13892	-397.95398	-394.14383	490.70691	-390.65982	-264.20798	858.69946	-557.77716	-601.43823	878.12195	-682.7265	-628.04834	427.55881	-744.83661	-696.2948	506.70911	-803.54779	-501.77896	146.44629	-1026.722	-561.94019	193.19121	-1092.9506
219	1.085	-344.67053	74.054855	-538.52496	-400.89359	82.688599	-542.02014	-285.53827	492.06204	-396.10345	-391.96173	490.5517	-389.06226	-259.78879	861.2182	-555.13684	-600.26904	881.22296	-671.56952	-633.89935	430.10464	-731.53345	-702.03693	510.00119	-788.45465	-506.55685	155.42253	-1020.2657	-568.75671	202.70633	-1085.0551
220	1.09	-343.74512	74.341827	-538.15448	-399.78613	83.21656	-541.92114	-283.78973	492.24606	-394.59317	-389.4805	490.72678	-387.88486	-255.34492	863.73474	-552.67969	-598.99738	884.67584	-660.1936	-639.74329	433.02646	-717.28485	-707.50195	513.68793	-772.67566	-511.73026	165.065	-1013.3053	-576.16199	209.37743	-1073.1652
221	1.095	-343.14603	74.722374	-537.60498	-398.6785	83.826096	-541.68176	-281.97272	492.67496	-393.37549	-387.20154	491.17136	-386.86575	-250.4996	866.40289	-550.80963	-597.73584	888.24042	-648.69202	-645.2879	436.49402	-701.87921	-712.46484	517.69116	-756.45209	-517.04205	175.28482	-1006.4084	-583.77051	221.28653	-1066.536
222	1.1	-341.59363	75.324486	-537.52679	-397.49915	84.403915	-541.49121	-279.89871	493.25912	-392.60757	-385.09573	492.04568	-385.78479	-245.81	869.12946	-549.03674	-597.11407	892.04242	-636.31549	-650.17438	440.42239	-685.38928	-716.88696	522.04218	-739.83167	-522.42798	186.27689	-999.0816	-592.95514	235.87613	-1055.9915
223	1.105	-340.62128	75.836624	-537.26379	-397.01602	84.726707	-540.63623	-277.60788	493.89697	-392.36261	-382.52637	492.90588	-385.1983	-241.28349	871.8678	-547.96075	-594.90771	897.0069	-624.66754	-654.23236	444.63406	-668.00195	-720.7912	526.65948	-722.4895	-527.76135	198.20653	-991.24402	-600.46814	245.08548	-1047.3455
224	1.11	-339.99243	76.250847	-536.8938	-395.46927	85.807426	-541.26117	-275.21292	494.61453	-392.52942	-379.1705	493.61063	-384.62628	-236.3867	874.46265	-547.11871	-593.51929	901.57977	-612.30609	-657.2511	449.10605	-649.84338	-724.41229	531.7193	-704.26941	-532.99561	211.07793	-982.69678	-611.05121	259.02051	-1035.1777
225	1.115	-339.06604	77.169724	-536.86316	-394.64746	86.769295	-540.95673	-272.60706	495.27966	-393.26117	-375.86188	494.39532	-384.38547	-231.51939	877.33856	-546.66986	-591.34521	906.79364	-599.99188	-659.30548	453.63058	-631.12	-727.41345	536.88361	-684.91376	-538.11871	225.16434	-973.48346	-620.59058	270.35327	-1023.1125
226	1.12	-338.91077	77.759262	-536.39001	-393.93573	87.816887	-540.52448	-269.80835	496.10373	-394.48734	-372.92041	495.3421	-384.33505	-226.95294	880.03802	-546.73779	-587.44348	912.5603	-587.6842	-659.91302	458.28815	-612.56458	-729.59741	541.62073	-664.70911	-543.86792	240.05136	-963.2146	-627.91022	278.77121	-1010.9343
227	1.125	-337.83905	78.843826	-536.55316	-393.35059	88.996452	-540.13416	-266.97345	496.95938	-396.16782	-369.63303	496.21918	-384.92303	-221.98112	882.90533	-547.40491	-585.72009	918.03937	-575.2326	-659.29993	462.49719	-594.6319	-731.98962	546.42688	-643.90485	-548.94672	256.65366	-952.54388	-636.96466	290.79633	-996.75739
228	1.13	-337.37195	79.894814	-536.25555	-392.8028	90.319435	-539.61176	-263.62259	498.01627	-398.43524	-366.63004	497.54797	-385.2623	-217.5972	885.42255	-548.25732	-580.98053	924.00061	-563.48065	-658.15375	467.98798	-574.18988	-734.46783	551.28534	-622.00146	-554.04059	273.6232	-940.20331	-645.32904	303.48303	-982.12543
229	1.135	-336.93216	81.018433	-535.9361	-392.09338	91.806404	-539.0849	-260.89703	499.05969	-400.72678	-363.23236	498.73941	-385.95532	-212.26361	888.27618	-550.17462	-577.21423	930.37317	-551.92255	-656.02863	473.30704	-554.99042	-736.41302	557.04358	-598.87726	-558.20074	291.00412	-926.90887	-653.77649	319.87842	-963.15637
230	1.14	-336.20361	82.504021	-535.74854	-391.51376	93.509361	-538.41858	-257.86761	500.34756	-403.39688	-359.79398	500.2312	-386.8476	-208.62999	890.578	-551.6344	-573.17206	937.32129	-540.8493	-653.05585	479.05078	-535.57745	-738.1994	563.1142	-575.21033	-563.77917	307.98212	-911.98627	-661.27881	336.50241	-946.15942
231	1.145	-335.61444	84.166214	-535.40717	-391.00388	95.496162	-537.63409	-254.89732	501.73376	-406.18256	-356.59158	501.98413	-387.52475	-204.22682	892.91827	-553.97809	-567.24323	944.34076	-530.1994	-649.53577	485.24884	-516.03741	-738.96802	570.11444	-551.00238	-570.5777	324.24292	-895.50269	-666.39954	351.9823	-930.64423
232	1.15	-335.06839	85.780457	-534.91656	-390.40253	97.452957	-536.7276	-251.99368	503.1954	-408.95847	-353.12183	504.06998	-388.32327	-199.85356	895.43799	-556.9353	-561.8924	951.35754	-520.24548	-645.5614	491.88275	-496.48056	-739.16742	577.95044	-525.99689	-576.12292	340.93265	-878.49933	-671.30664	369.76544	-913.50446
233	1.155	-334.47546	87.821999	-534.45258	-389.99741	99.665611	-535.70911	-249.08754	504.93472	-411.71204	-349.7211	506.21228	-389.00214	-195.78293	897.88898	-559.94904	-556.39124	958.50293	-510.94424	-641.43048	499.15521	-476.79449	-738.60986	586.60846	-500.20474	-583.06769	357.10843	-860.45422	-679.34021	387.55286	-892.29852
234	1.16	-334.05447	90.039841	-533.8584	-389.57858	102.07146	-534.6264	-246.07756	506.99277	-414.43671	-346.08865	508.62186	-389.73419	-192.64758	899.81927	-563.30157	-549.83948	965.95386	-502.64227	-637.26196	507.14493	-456.73193	-737.06067	595.97577	-473.80496	-588.92554	373.82889	-842.21271	-686.26862	405.96274	-871.46332
235	1.165	-333.68161	92.370232	-533.33362	-389.35611	104.68381	-533.37744	-243.21176	509.12769	-417.22711	-342.49216	511.38748	-390.47034	-189.13315	902.04358	-567.51715	-543.46265	974.00818	-494.57419	-633.21301	516.14069	-436.25513	-734.49817	606.3316	-447.29803	-596.37225	390.55087	-823.10046	-694.40063	424.17615	-849.07623
236	1.17	-333.43668	94.78965	-532.63586	-389.29465	107.47404	-531.96545	-240.11467	511.57022	-419.85989	-338.74243	514.14307	-391.12534	-186.87695	903.84998	-571.95825	-537.00256	981.61865	-487.52625	-629.16119	526.12433	-415.2879	-731.04407	617.82355	-420.87323	-604.13281	407.35394	-803.79059	-701.68646	443.03085	-827.74554
237	1.175	-333.37866	97.396027	-531.97736	-389.56613	110.54911	-530.35419	-237.05278	514.13629	-422.62546	-334.92294	517.19269	-391.68341	-184.2599	905.81329	-576.96558	-529.91992	989.64636	-481.07953	-624.82056	537.07684	-392.85239	-726.58569	630.6167	-394.68469	-611.73627	424.73825	-784.0274	-710.36096	462.42734	-802.54205
238	1.18	-334.35318	99.601234	-530.73883	-389.76096	113.44731	-528.65131	-234.4528	516.6803	-425.51312	-331.06345	520.49902	-392.04486	-181.61237	907.8764	-582.49146	-522.78906	997.54321	-475.31113	-620.27417	549.28259	-370.314	-721.04608	644.37567	-369.22034	-620.85974	441.84354	-763.05951	-718.82794	481.28415	-778.72803
239	1.185	-334.71689	102.17529	-529.87024	-390.01065	116.80112	-526.7251	-230.93047	519.55005	-428.26981	-326.64597	523.67041	-392.55978	-179.44356	909.68835	-588.36481	-515.60229	1004.9714	-470.28876	-615.39349	562.77222	-347.34354	-714.57141	659.17236	-344.29172	-629.89539	459.32507	-741.95868	-728.34229	500.52286	-753.15662
